<svg width="204" height="36" viewBox="0 0 204 36" fill="none" xmlns="http://www.w3.org/2000/svg">
<g clip-path="url(#clip0_5233_3901)">
<path d="M24.7547 0.317168L8.27714 1.75877C3.45933 2.18028 -0.104592 6.42759 0.316912 11.2454L1.75852 27.723C2.18002 32.5408 6.42733 36.1047 11.2452 35.6832L27.7227 34.2416C32.5406 33.8201 36.1045 29.5728 35.683 24.755L34.2414 8.2774C33.8199 3.45958 29.5726 -0.104337 24.7547 0.317168Z" fill="#009B85"/>
<path fill-rule="evenodd" clip-rule="evenodd" d="M27.3039 8.77002L29.1328 12.0147L20.8269 26.6545L17.4868 20.9376L19.3664 17.6543L20.8142 20.1522L27.3039 8.77002ZM13.41 20.1523L17.1185 13.65L18.9981 16.9076L13.3973 26.6545L7.84741 16.8947L9.70162 13.65L13.41 20.1523Z" fill="white"/>
<path fill-rule="evenodd" clip-rule="evenodd" d="M51.9723 14.0342C51.9723 12.7265 53.0854 12.0726 55.3116 12.0726C56.8061 12.0726 58.0826 12.2906 59.1412 12.7265L59.8417 10.2979L59.2813 10.0644C58.9077 9.92432 58.32 9.78032 57.5183 9.63243C56.7165 9.48453 55.8954 9.41059 55.0547 9.41059C53.1555 9.41059 51.6337 9.79589 50.4895 10.5665C49.3453 11.3371 48.7732 12.563 48.7732 14.2443C48.7732 15.0071 48.9055 15.6765 49.1702 16.2525C49.4348 16.8285 49.8123 17.3033 50.3027 17.677C50.7931 18.0506 51.2835 18.3503 51.7738 18.576C52.2642 18.8017 52.8441 19.008 53.5135 19.1948C54.0584 19.3505 54.4359 19.4595 54.6461 19.5217C54.8562 19.584 55.1637 19.7008 55.5684 19.872C55.9732 20.0432 56.2612 20.2028 56.4324 20.3507C56.6037 20.4986 56.7633 20.701 56.9111 20.9578C57.059 21.2147 57.133 21.4988 57.133 21.8102C57.133 22.4951 56.8489 23.0128 56.2807 23.363C55.7124 23.7133 54.899 23.8884 53.8404 23.8884C52.2837 23.8884 50.8748 23.616 49.6138 23.0711L48.9133 25.6164L49.4971 25.8499C49.8707 26.0056 50.474 26.1613 51.3068 26.317C52.1397 26.4726 53.0076 26.5505 53.9105 26.5505C55.9654 26.5505 57.565 26.1224 58.7092 25.2662C59.8534 24.4099 60.4255 23.1801 60.4255 21.5766C60.4255 20.8917 60.3165 20.2806 60.0986 19.7436C59.8807 19.2065 59.6277 18.7706 59.3397 18.4359C59.0517 18.1012 58.6508 17.7937 58.1371 17.5135C57.6234 17.2333 57.1797 17.0231 56.8061 16.883C56.4324 16.7429 55.9421 16.5872 55.3349 16.416C54.8056 16.2603 54.4437 16.1513 54.2491 16.0891C54.0545 16.0268 53.7665 15.9178 53.3851 15.7622C53.0037 15.6065 52.739 15.4625 52.5911 15.3302C52.4432 15.1978 52.3031 15.0188 52.1708 14.7931C52.0385 14.5673 51.9723 14.3144 51.9723 14.0342ZM70.56 15.9256V13.357H67.1274V9.62075L63.9049 10.0878V13.357H62.317V15.9256H63.9049V21.6C63.9049 24.9003 65.3682 26.5505 68.2949 26.5505C69.4936 26.5505 70.4355 26.3637 71.1204 25.99L70.7468 23.6316L70.5133 23.7016C70.3576 23.7639 70.1358 23.8223 69.8478 23.8768C69.5598 23.9312 69.2835 23.9585 69.0188 23.9585C67.7578 23.9585 67.1274 23.1723 67.1274 21.6V15.9256H70.56ZM78.4528 19.0313C74.8722 19.0313 73.082 20.2845 73.082 22.7909C73.082 25.2973 74.8567 26.5505 78.4061 26.5505C79.418 26.5505 80.4026 26.4493 81.36 26.2469C82.3174 26.0445 82.9401 25.885 83.2281 25.7682C83.5161 25.6515 83.738 25.5542 83.8936 25.4763V17.8404C83.8936 16.1436 83.4188 14.9254 82.4692 14.1859C81.5196 13.4465 80.1808 13.0768 78.4528 13.0768C76.6314 13.0768 75.0668 13.3881 73.7591 14.0108L74.3663 16.3926L74.81 16.2292C75.1057 16.1046 75.5494 15.984 76.141 15.8672C76.7325 15.7505 77.3241 15.6921 77.9157 15.6921C79.7682 15.6921 80.6945 16.3849 80.6945 17.7704V19.1948C80.0251 19.0858 79.2778 19.0313 78.4528 19.0313ZM78.5462 24.4489C77.8456 24.4489 77.3008 24.3321 76.9116 24.0986C76.5224 23.8651 76.3278 23.437 76.3278 22.8143C76.3278 22.176 76.538 21.7401 76.9583 21.5066C77.3786 21.2731 77.9857 21.1563 78.7797 21.1563C79.2467 21.1563 79.885 21.203 80.6945 21.2964V24.1453L80.4143 24.2153C80.243 24.2776 79.9784 24.3321 79.6203 24.3788C79.2623 24.4255 78.9042 24.4489 78.5462 24.4489ZM93.5377 13.2169C93.0863 13.1546 92.5726 13.1235 91.9966 13.1235C90.0039 13.1235 88.346 13.4737 87.0227 14.1743V26.2703H90.2452V16.1825C91.0236 15.9645 91.7864 15.8556 92.5336 15.8556C92.9384 15.8556 93.2108 15.8633 93.3509 15.8789L93.5377 13.2169ZM103.299 15.9256V13.357H99.866V9.62075L96.6435 10.0878V13.357H95.0556V15.9256H96.6435V21.6C96.6435 24.9003 98.1068 26.5505 101.034 26.5505C102.232 26.5505 103.174 26.3637 103.859 25.99L103.485 23.6316L103.252 23.7016C103.096 23.7639 102.874 23.8223 102.586 23.8768C102.298 23.9312 102.022 23.9585 101.757 23.9585C100.496 23.9585 99.866 23.1723 99.866 21.6V15.9256H103.299ZM109.16 19.8253C109.16 18.4553 109.374 17.4201 109.802 16.7196C110.23 16.019 111.005 15.6688 112.125 15.6688C112.904 15.6688 113.573 15.7622 114.134 15.949V23.6549C113.651 23.8573 112.982 23.9585 112.125 23.9585C111.02 23.9585 110.25 23.6082 109.814 22.9077C109.378 22.2071 109.16 21.1797 109.16 19.8253ZM105.937 19.8253C105.937 24.3088 107.914 26.5505 111.869 26.5505C112.569 26.5505 113.324 26.4493 114.134 26.2469V31.1273H117.356V14.1509L116.702 13.894C116.282 13.7072 115.636 13.5243 114.764 13.3453C113.892 13.1663 113.013 13.0768 112.125 13.0768C109.962 13.0768 108.389 13.6411 107.408 14.7697C106.428 15.8984 105.937 17.5836 105.937 19.8253ZM123.708 13.357H120.509V21.1797C120.509 23.1568 120.972 24.5462 121.898 25.3479C122.824 26.1496 124.245 26.5505 126.16 26.5505C127.125 26.5505 128.102 26.4493 129.09 26.2469C130.079 26.0445 130.733 25.885 131.052 25.7682C131.371 25.6515 131.624 25.5542 131.811 25.4763V13.357H128.588V23.6316L128.308 23.7016C128.137 23.7639 127.864 23.8223 127.491 23.8768C127.117 23.9312 126.736 23.9585 126.346 23.9585C125.521 23.9585 124.875 23.795 124.408 23.4681C123.941 23.1412 123.708 22.4873 123.708 21.5066V13.357ZM145.378 20.6192C145.549 19.8097 145.635 19.0625 145.635 18.3775C145.635 16.7896 145.214 15.5092 144.374 14.5362C143.533 13.5632 142.186 13.0768 140.334 13.0768C138.388 13.0768 136.944 13.6917 136.002 14.9215C135.06 16.1513 134.589 17.7782 134.589 19.8019C134.589 24.301 136.668 26.5505 140.824 26.5505C142.459 26.5505 143.844 26.317 144.981 25.8499L144.584 23.4214L144.14 23.5615C143.86 23.6549 143.432 23.7483 142.856 23.8417C142.28 23.9351 141.712 23.9818 141.151 23.9818C139.937 23.9818 139.077 23.6549 138.571 23.0011C138.065 22.3472 137.812 21.5533 137.812 20.6192H145.378ZM142.576 18.5176H137.835C137.96 16.5561 138.793 15.5753 140.334 15.5753C141.206 15.5753 141.797 15.8128 142.109 16.2876C142.42 16.7624 142.576 17.3967 142.576 18.1907V18.5176ZM150.935 16.7663C150.935 15.9879 151.799 15.5987 153.527 15.5987C154.788 15.5987 155.863 15.7388 156.75 16.019L157.217 13.5905C156.983 13.4971 156.481 13.3881 155.711 13.2636C154.94 13.139 154.15 13.0768 153.341 13.0768C151.753 13.0768 150.453 13.3803 149.441 13.9875C148.429 14.5946 147.923 15.5831 147.923 16.9531C147.923 17.6069 148.044 18.1868 148.285 18.6928C148.526 19.1987 148.877 19.6112 149.336 19.9304C149.795 20.2495 150.243 20.4986 150.678 20.6776C151.114 20.8566 151.62 21.024 152.196 21.1797C153.084 21.4132 153.73 21.6389 154.134 21.8569C154.539 22.0748 154.742 22.4017 154.742 22.8376C154.742 23.6316 153.909 24.0285 152.243 24.0285C150.873 24.0285 149.682 23.8417 148.67 23.4681L148.25 25.8966L148.717 26.0601C149.028 26.1691 149.519 26.2781 150.188 26.387C150.858 26.496 151.558 26.5505 152.29 26.5505C154.002 26.5505 155.345 26.2275 156.318 25.5814C157.291 24.9353 157.777 23.9273 157.777 22.5574C157.777 21.9191 157.668 21.3548 157.45 20.8644C157.232 20.374 156.913 19.9732 156.493 19.6618C156.073 19.3505 155.637 19.1014 155.185 18.9146C154.734 18.7278 154.197 18.5488 153.574 18.3775C153.091 18.253 152.733 18.1518 152.5 18.0739C152.266 17.9961 152.006 17.8949 151.718 17.7704C151.43 17.6458 151.227 17.5018 151.11 17.3384C150.994 17.1749 150.935 16.9842 150.935 16.7663ZM167.912 15.9256V13.357H164.479V9.62075L161.257 10.0878V13.357H159.669V15.9256H161.257V21.6C161.257 24.9003 162.72 26.5505 165.647 26.5505C166.845 26.5505 167.787 26.3637 168.472 25.99L168.099 23.6316L167.865 23.7016C167.709 23.7639 167.488 23.8223 167.2 23.8768C166.912 23.9312 166.635 23.9585 166.371 23.9585C165.11 23.9585 164.479 23.1723 164.479 21.6V15.9256H167.912ZM174.217 13.357H170.994V26.2703H174.217V13.357ZM172.629 8.33643C172.053 8.33643 171.601 8.48043 171.274 8.76843C170.947 9.05643 170.784 9.46507 170.784 9.99437C170.784 10.5392 170.947 10.9557 171.274 11.2437C171.601 11.5317 172.053 11.6757 172.629 11.6757C173.189 11.6757 173.633 11.5317 173.96 11.2437C174.287 10.9557 174.45 10.5392 174.45 9.99437C174.45 9.46507 174.283 9.05643 173.948 8.76843C173.613 8.48043 173.174 8.33643 172.629 8.33643ZM185.612 19.8253C185.612 20.4013 185.589 20.8839 185.542 21.2731C185.495 21.6623 185.39 22.0865 185.227 22.5457C185.063 23.005 184.791 23.3552 184.41 23.5965C184.028 23.8378 183.542 23.9585 182.95 23.9585C182.358 23.9585 181.868 23.8378 181.479 23.5965C181.09 23.3552 180.813 23.005 180.65 22.5457C180.487 22.0865 180.381 21.6623 180.335 21.2731C180.288 20.8839 180.265 20.4013 180.265 19.8253C180.265 19.2649 180.288 18.7862 180.335 18.3892C180.381 17.9922 180.487 17.5641 180.65 17.1049C180.813 16.6456 181.09 16.2915 181.479 16.0424C181.868 15.7933 182.358 15.6688 182.95 15.6688C183.542 15.6688 184.028 15.7933 184.41 16.0424C184.791 16.2915 185.063 16.6456 185.227 17.1049C185.39 17.5641 185.495 17.9922 185.542 18.3892C185.589 18.7862 185.612 19.2649 185.612 19.8253ZM188.835 19.8253C188.835 15.3263 186.873 13.0768 182.95 13.0768C179.011 13.0768 177.042 15.3263 177.042 19.8253C177.042 24.3088 179.011 26.5505 182.95 26.5505C186.873 26.5505 188.835 24.3088 188.835 19.8253ZM199.763 26.2703H202.962V18.4476C202.962 16.4705 202.499 15.0811 201.573 14.2793C200.646 13.4776 199.226 13.0768 197.311 13.0768C196.346 13.0768 195.369 13.1779 194.381 13.3803C193.392 13.5827 192.738 13.7423 192.419 13.859C192.1 13.9758 191.847 14.0731 191.66 14.1509V26.2703H194.883V15.9957L195.163 15.9023C195.334 15.8556 195.606 15.805 195.98 15.7505C196.354 15.696 196.735 15.6688 197.124 15.6688C197.949 15.6688 198.595 15.8322 199.062 16.1591C199.53 16.486 199.763 17.1399 199.763 18.1206V26.2703Z" fill="#032C3E"/>
</g>
<defs>
<clipPath id="clip0_5233_3901">
<rect width="203.351" height="36" fill="white"/>
</clipPath>
</defs>
</svg>
